PathFileType	4	(X/Y/Z)	outputs\dynamic_markers.trc
DataRate	CameraRate	NumFrames	NumMarkers	Units	OrigDataRate	OrigDataStartFrame	OrigNumFrames
360.000000	360.000000	4	48	m	360.000000	83	669
Frame#	Time	C7			CLAV			LANK			LASI			LBAK			LBHD			LELB			LFHD			LFIN			LFRM			LHEE			LIC			LKNE			LMANK			LMELB			LMKNE			LPSI			LSHO			LTHI			LTIB			LTOE			LUPA			LWRA			LWRB			RANK			RASI			RBAK			RBHD			RELB			RFHD			RFIN			RFRM			RHEE			RIC			RKNE			RMANK			RMELB			RMKNE			RPSI			RSHO			RTHI			RTIB			RTOE			RUPA			RWRA			RWRB			STRN			T10			
		X1	Y1	Z1	X2	Y2	Z2	X3	Y3	Z3	X4	Y4	Z4	X5	Y5	Z5	X6	Y6	Z6	X7	Y7	Z7	X8	Y8	Z8	X9	Y9	Z9	X10	Y10	Z10	X11	Y11	Z11	X12	Y12	Z12	X13	Y13	Z13	X14	Y14	Z14	X15	Y15	Z15	X16	Y16	Z16	X17	Y17	Z17	X18	Y18	Z18	X19	Y19	Z19	X20	Y20	Z20	X21	Y21	Z21	X22	Y22	Z22	X23	Y23	Z23	X24	Y24	Z24	X25	Y25	Z25	X26	Y26	Z26	X27	Y27	Z27	X28	Y28	Z28	X29	Y29	Z29	X30	Y30	Z30	X31	Y31	Z31	X32	Y32	Z32	X33	Y33	Z33	X34	Y34	Z34	X35	Y35	Z35	X36	Y36	Z36	X37	Y37	Z37	X38	Y38	Z38	X39	Y39	Z39	X40	Y40	Z40	X41	Y41	Z41	X42	Y42	Z42	X43	Y43	Z43	X44	Y44	Z44	X45	Y45	Z45	X46	Y46	Z46	X47	Y47	Z47	X48	Y48	Z48	

84	0.2305555555555556	0.01858999952673912	1.629795432090759	0.6549499034881592	0.07668642699718475	1.534110188484192	0.5278400778770447	-0.01718798466026783	0.06270833313465118	0.5445468425750732	-0.03783486783504486	1.107481360435486	0.5142616629600525	-0.09003943204879761	1.451682567596436	0.7041146159172058	-0.01479130983352661	1.796744346618652	0.5230360627174377	-0.2150979042053223	1.255240917205811	0.4520560503005981	0.111117884516716	1.822598457336426	0.481775313615799	0.08392477780580521	1.351638078689575	0.3745779097080231	-0.0981256291270256	1.293681859970093	0.3973070979118347	0.0334605909883976	0.06683420389890671	0.6244369745254517	-0.114550769329071	1.156308889389038	0.5659878849983215	-0.0529961921274662	0.5569076538085938	0.4675521552562714	0.1021987348794937	0.06912106275558472	0.5548680424690247	-0.1795528829097748	1.229304194450378	0.543142557144165	0.06691242754459381	0.5520449280738831	0.491843581199646	-0.04551893472671509	1.133800625801086	0.7208700180053711	-0.1285659074783325	1.608335137367249	0.5247173309326172	-0.1138650625944138	0.7219380736351013	0.5077829360961914	-0.06632275134325027	0.4225883781909943	0.4814307689666748	0.0687258318066597	0.06901823729276657	0.3664925694465637	-0.1896674036979675	1.429388999938965	0.4708243310451508	0.03520983830094337	1.324511766433716	0.4206539392471313	0.01750925928354263	1.270855903625488	0.3573964834213257	0.1150426492094994	0.1255180090665817	0.9262627363204956	0.1944480687379837	1.100981593132019	0.6220129728317261	0.08516810834407806	1.441446781158447	0.7696916460990906	0.03079078905284405	1.775378346443176	0.6699336767196655	0.3502919971942902	1.256914734840393	0.7634668350219727	0.1684745252132416	1.811776280403137	0.6279956698417664	0.2677730023860931	1.328662276268005	0.4185411930084229	0.3124164938926697	1.274576783180237	0.6047978401184082	0.01796536147594452	0.1531855911016464	0.9369679689407349	0.2035227864980698	1.148657321929932	0.7201855778694153	0.2523133456707001	0.5273792147636414	0.7142525911331177	0.03817600756883621	0.09606891870498657	0.8448238968849182	0.2688340246677399	1.225861549377441	0.7870256900787354	0.1555534601211548	0.5208803415298462	0.6210926175117493	0.04325259476900101	1.127007246017456	0.7629702091217041	0.2266807407140732	1.587255001068115	0.6532565355300903	0.2601644992828369	0.7800036668777466	0.7135091423988342	0.2262756377458572	0.3910494744777679	0.7933177947998047	0.2120497971773148	0.05474874749779701	0.7818610668182373	0.319868266582489	1.408014535903931	0.6981338262557983	0.2198014855384827	1.292192578315735	0.5300297141075134	0.2615897953510284	1.226001739501953	0.5102159976959229	0.08649475127458572	1.351194262504578	0.4969688951969147	-0.004790659993886948	1.372559905052185	0.7358067631721497	
85	0.2333333333333333	0.01816783472895622	1.629961967468262	0.654485821723938	0.07600719481706619	1.534329652786255	0.5273381471633911	-0.01723256148397923	0.06267628073692322	0.5445453524589539	-0.03856597095727921	1.107733249664307	0.5137204527854919	-0.09049905091524124	1.451800227165222	0.7037739753723145	-0.01524296682327986	1.796885371208191	0.5226380825042725	-0.21562160551548	1.25558066368103	0.4511569738388062	0.1105527654290199	1.822733998298645	0.4812575578689575	0.08324208855628967	1.352151989936829	0.3734288811683655	-0.09867854416370392	1.294142723083496	0.3964086174964905	0.03346432745456696	0.06681820750236511	0.624410092830658	-0.114930085837841	1.156457901000977	0.5656912326812744	-0.05342227220535278	0.5567421317100525	0.4675662815570831	0.1021953821182251	0.06909053027629852	0.5548534393310547	-0.18000328540802	1.229498028755188	0.5421653985977173	0.06647293269634247	0.5518537163734436	0.4918307065963745	-0.04552189260721207	1.133690237998962	0.720372200012207	-0.1291760802268982	1.608628988265991	0.5244171023368835	-0.1140376105904579	0.7218348979949951	0.5079860091209412	-0.06660319119691849	0.4224383533000946	0.4814228117465973	0.06873142719268799	0.06900542229413986	0.3664925992488861	-0.1902099698781967	1.429705739021301	0.470316618680954	0.03457899391651154	1.32502806186676	0.4195671379566193	0.01683537103235722	1.271429181098938	0.3562555611133575	0.1163763105869293	0.1290682405233383	0.9240832924842834	0.1939762830734253	1.10134494304657	0.6203495264053345	0.08499187231063843	1.441462516784668	0.7691403031349182	0.03034636937081814	1.775492310523987	0.6694812774658203	0.3503986299037933	1.256992936134338	0.761748731136322	0.1679748296737671	1.811902165412903	0.6274381279945374	0.2674278616905212	1.329292297363281	0.4171903729438782	0.3122438192367554	1.274899959564209	0.6031966209411621	0.0196153037250042	0.1581306904554367	0.934374213218689	0.2035718262195587	1.148867845535278	0.7186595797538757	0.2550179362297058	0.5281093716621399	0.7079383730888367	0.03930357098579407	0.09937064349651337	0.8430920839309692	0.2690216302871704	1.225762963294983	0.7854204773902893	0.1580554246902466	0.5216788053512573	0.6149312257766724	0.04343622922897339	1.126865386962891	0.7622120380401611	0.226203441619873	1.587428331375122	0.6525300145149231	0.2615363895893097	0.7803946137428284	0.7090917825698853	0.2288361787796021	0.3925313055515289	0.7877826690673828	0.2124017626047134	0.0549698993563652	0.7809320688247681	0.3196874558925629	1.408180236816406	0.6968883872032166	0.2196063995361328	1.292718410491943	0.52875816822052	0.2613055109977722	1.226570129394531	0.5087991952896118	0.08573463559150696	1.351497292518616	0.4963366389274597	-0.005011616740375757	1.372642755508423	0.7354690432548523	
86	0.2361111111111111	0.01777377352118492	1.630112886428833	0.6539804935455322	0.07528005540370941	1.534573554992676	0.5268358588218689	-0.01728616282343864	0.06262939423322678	0.5445386171340942	-0.03945792093873024	1.107975482940674	0.5130590796470642	-0.09092217683792114	1.451918244361877	0.7034028172492981	-0.01578349433839321	1.796983957290649	0.522210955619812	-0.2161139994859695	1.255925416946411	0.4503114819526672	0.1099458113312721	1.822824239730835	0.4807153046131134	0.08266131579875946	1.352681040763855	0.3723146021366119	-0.09946773201227188	1.294623851776123	0.3951679468154907	0.03346895799040794	0.06678888201713562	0.6243871450424194	-0.1156407743692398	1.156679391860962	0.5653379559516907	-0.05385052412748337	0.5565704107284546	0.4676446914672852	0.1021681874990463	0.06905046105384827	0.5548818111419678	-0.1803981959819794	1.229739785194397	0.5412956476211548	0.06543903797864914	0.5514553189277649	0.4924364387989044	-0.04551947489380836	1.133595824241638	0.7198783159255981	-0.1298768520355225	1.60891318321228	0.5242046713829041	-0.1142406836152077	0.72169429063797	0.5081686973571777	-0.06677532941102982	0.4222361147403717	0.4814974963665009	0.06873296946287155	0.06900307536125183	0.3665034770965576	-0.1908233314752579	1.430087566375732	0.469728410243988	0.03400085866451263	1.325528621673584	0.4185064136981964	0.01625295542180538	1.271958708763123	0.3551388680934906	0.1177743524312973	0.1328475922346115	0.9219432473182678	0.1934576630592346	1.101749420166016	0.6188111305236816	0.08486225455999374	1.44152557849884	0.7685971856117249	0.02994130551815033	1.775614619255066	0.6690399646759033	0.3505419790744781	1.257039308547974	0.760282039642334	0.167525127530098	1.8120276927948	0.6269407272338867	0.2669911980628967	1.329814195632935	0.4159711599349976	0.3120593726634979	1.275233626365662	0.6017873287200928	0.02145725302398205	0.1632154434919357	0.931707501411438	0.2035893946886063	1.149158000946045	0.717049777507782	0.257784366607666	0.5288798213005066	0.701290488243103	0.04031623899936676	0.1028517857193947	0.8412665724754333	0.2692581117153168	1.225716114044189	0.7839491367340088	0.1607114970684052	0.5226379036903381	0.6086617708206177	0.04347549751400948	1.126762628555298	0.761458694934845	0.2257491499185562	1.587615013122559	0.6518406867980957	0.2629576325416565	0.780748724937439	0.7045601010322571	0.2314412593841553	0.3940149247646332	0.782287061214447	0.212770476937294	0.05516758933663368	0.7799792289733887	0.3194142878055573	1.408322334289551	0.6956522464752197	0.2194949388504028	1.293256044387817	0.5275384783744812	0.260905534029007	1.227033734321594	0.5071881413459778	0.08503754436969757	1.351765990257263	0.4957444071769714	-0.005243825260549784	1.372697949409485	0.7350767254829407	
87	0.2388888888888889	0.01751748472452164	1.630192518234253	0.6537584066390991	0.07477442920207977	1.534737825393677	0.5264770984649658	-0.01729849725961685	0.06260005384683609	0.5445520281791687	-0.03999954462051392	1.1081303358078	0.512695848941803	-0.09121132642030716	1.452017307281494	0.7031612992286682	-0.01613093540072441	1.79706072807312	0.5219322443008423	-0.2165334522724152	1.25620174407959	0.4497133493423462	0.1095489412546158	1.822896361351013	0.4803404808044434	0.08221360296010971	1.353059530258179	0.3715134859085083	-0.09985113143920898	1.294960737228394	0.3945515751838684	0.0334770455956459	0.06675341725349426	0.6243891716003418	-0.1160445138812065	1.156790852546692	0.5651050209999084	-0.05411476641893387	0.5564742088317871	0.467701256275177	0.1021503806114197	0.06905540078878403	0.5548694133758545	-0.1806382387876511	1.229907035827637	0.5406434535980225	0.06466913223266602	0.5511219501495361	0.4929686784744263	-0.04549959301948547	1.133528113365173	0.7195806503295898	-0.1302889734506607	1.609109163284302	0.5240393877029419	-0.114475354552269	0.721530020236969	0.5082190036773682	-0.06695879995822906	0.4221532344818115	0.4815111458301544	0.06873525679111481	0.06899299472570419	0.3665088415145874	-0.1912244409322739	1.430353045463562	0.4693945646286011	0.03362919390201569	1.325800776481628	0.4177510440349579	0.0158099178224802	1.272309184074402	0.3544281125068665	0.1189115196466446	0.1354460418224335	0.9203599691390991	0.193157821893692	1.102051734924316	0.617892324924469	0.08476293832063675	1.441559433937073	0.7682117819786072	0.02969915792346001	1.775705337524414	0.6687600612640381	0.350584477186203	1.257120847702026	0.7592812180519104	0.1672913134098053	1.812095642089844	0.6266617178916931	0.2666263580322266	1.33016037940979	0.4150311946868896	0.3119310736656189	1.275484800338745	0.6009080410003662	0.02276240475475788	0.1666994690895081	0.9297136664390564	0.2035283744335175	1.14932107925415	0.7161068320274353	0.2595244646072388	0.5295331478118896	0.696787416934967	0.04124984890222549	0.1050827503204346	0.8400493860244751	0.26927849650383	1.225716590881348	0.7829421162605286	0.162338525056839	0.523459255695343	0.6045246124267578	0.04362545162439346	1.126693367958069	0.7609380483627319	0.2254286408424377	1.587732076644897	0.6513211131095886	0.2638355195522308	0.7811236381530762	0.7014421224594116	0.2331645786762238	0.3951179981231689	0.7785314321517944	0.2130281776189804	0.0553341805934906	0.7793469429016113	0.3191814422607422	1.408461332321167	0.6948108077049255	0.2192061990499496	1.29343581199646	0.526456356048584	0.2606850564479828	1.227258443832397	0.5062357187271118	0.08445745706558228	1.351974368095398	0.4953269362449646	-0.005385354161262512	1.372745394706726	0.7347854971885681	
